<svg width="199" height="19" viewBox="0 0 199 19" fill="none" xmlns="http://www.w3.org/2000/svg">
<path d="M9.992 18.312C6.904 18.312 4.48 17.536 2.72 15.984C0.96 14.432 0.08 12.304 0.08 9.6C0.08 6.896 0.952 4.768 2.696 3.216C4.44 1.648 6.832 0.863999 9.872 0.863999C12.192 0.863999 14.184 1.296 15.848 2.16L15.896 6.288H15.704C14.888 3.344 13.024 1.872 10.112 1.872C8.224 1.872 6.728 2.56 5.624 3.936C4.536 5.296 3.992 7.16 3.992 9.528C3.992 11.896 4.512 13.776 5.552 15.168C6.608 16.56 8.032 17.28 9.824 17.328C11.68 17.328 13.096 16.864 14.072 15.936C15.064 14.976 15.752 13.328 16.136 10.992H16.328L16.568 15.12C15.272 17.264 13.08 18.328 9.992 18.312ZM18.5666 10.8C18.5666 8.496 19.3346 6.672 20.8706 5.328C22.4226 3.968 24.4786 3.288 27.0386 3.288C29.6146 3.288 31.6786 3.968 33.2306 5.328C34.7826 6.672 35.5586 8.496 35.5586 10.8C35.5586 13.104 34.7826 14.936 33.2306 16.296C31.6786 17.64 29.6226 18.312 27.0626 18.312C24.5026 18.312 22.4466 17.64 20.8946 16.296C19.3426 14.936 18.5666 13.104 18.5666 10.8ZM22.2386 10.8C22.2386 12.816 22.6706 14.416 23.5346 15.6C24.4146 16.768 25.5826 17.352 27.0386 17.352C28.5106 17.352 29.6786 16.768 30.5426 15.6C31.4226 14.416 31.8626 12.816 31.8626 10.8C31.8626 8.784 31.4226 7.192 30.5426 6.024C29.6786 4.84 28.5106 4.248 27.0386 4.248C25.5826 4.248 24.4146 4.84 23.5346 6.024C22.6706 7.192 22.2386 8.784 22.2386 10.8ZM47.6204 3.6H54.3644V3.84H53.9564C53.5884 3.84 53.2764 3.952 53.0204 4.176C52.7804 4.4 52.6524 4.688 52.6364 5.04V15.528C52.6364 16.52 52.7004 17.336 52.8284 17.976L52.8764 18.312H52.6604L41.6444 8.592V16.536C41.6604 16.888 41.7884 17.184 42.0284 17.424C42.2844 17.648 42.5964 17.76 42.9644 17.76H43.3724V18H36.6524V17.76H37.0364C37.4044 17.76 37.7164 17.648 37.9724 17.424C38.2284 17.184 38.3564 16.888 38.3564 16.536V5.976C38.3564 5.016 38.2924 4.224 38.1644 3.6L38.1164 3.264L38.3324 3.288L49.3244 12.96V5.064C49.3244 4.712 49.1964 4.424 48.9404 4.2C48.7004 3.96 48.3964 3.84 48.0284 3.84H47.6204V3.6ZM66.3956 7.08V6.84C66.3956 6.152 66.2036 5.608 65.8196 5.208C65.4356 4.792 64.8916 4.576 64.1876 4.56H60.7316V10.392H63.4916C64.2436 10.376 64.7796 10.064 65.0996 9.456C65.2436 9.168 65.3156 8.848 65.3156 8.496V8.328H65.5796V13.416H65.3156V13.248C65.3156 12.496 65.0356 11.952 64.4756 11.616C64.2036 11.44 63.8836 11.352 63.5156 11.352H60.7316V16.488C60.7476 16.856 60.8756 17.16 61.1156 17.4C61.3716 17.64 61.6836 17.76 62.0516 17.76H62.3396V18H55.6676V17.76H55.9556C56.3236 17.76 56.6276 17.64 56.8676 17.4C57.1236 17.16 57.2596 16.864 57.2756 16.512V5.088C57.2756 4.736 57.1476 4.44 56.8916 4.2C56.6356 3.96 56.3236 3.84 55.9556 3.84H55.6676V3.6H64.1396C65.2116 3.6 66.0516 3.48 66.6596 3.24V7.08H66.3956ZM79.7919 18H68.4879V17.76H68.7759C69.1439 17.76 69.4479 17.64 69.6879 17.4C69.9439 17.16 70.0799 16.864 70.0959 16.512V5.088C70.0799 4.736 69.9439 4.44 69.6879 4.2C69.4479 3.96 69.1439 3.84 68.7759 3.84H68.4879V3.6H76.9359C77.3679 3.6 77.8399 3.56 78.3519 3.48C78.8639 3.4 79.2239 3.32 79.4319 3.24V7.056H79.1919V6.84C79.1919 6.136 78.9999 5.584 78.6159 5.184C78.2319 4.784 77.6959 4.576 77.0079 4.56H73.5519V10.392H76.2879C76.8319 10.376 77.2719 10.192 77.6079 9.84C77.9439 9.488 78.1119 9.04 78.1119 8.496V8.328H78.3519V13.416H78.1119V13.248C78.1119 12.496 77.8319 11.952 77.2719 11.616C76.9839 11.44 76.6639 11.352 76.3119 11.352H73.5519V17.04H76.4319C77.4239 17.024 78.2639 16.72 78.9519 16.128C79.6559 15.52 80.1679 14.672 80.4879 13.584H80.7039L79.7919 18ZM90.9326 18.312C88.2446 18.296 86.1326 17.632 84.5966 16.32C83.0606 14.992 82.2926 13.152 82.2926 10.8C82.2926 8.448 83.0526 6.608 84.5726 5.28C86.1086 3.952 88.2286 3.288 90.9326 3.288C93.0446 3.288 94.8446 3.656 96.3326 4.392V8.208H96.1646C95.7646 6.784 95.1486 5.768 94.3166 5.16C93.4846 4.552 92.4366 4.248 91.1726 4.248C89.4766 4.248 88.1806 4.832 87.2846 6C86.3886 7.152 85.9406 8.736 85.9406 10.752C85.9406 12.752 86.3806 14.344 87.2606 15.528C88.1726 16.744 89.4126 17.352 90.9806 17.352C92.1166 17.352 93.0526 17.176 93.7886 16.824C94.5246 16.472 95.1086 15.912 95.5406 15.144C95.9726 14.36 96.2926 13.304 96.5006 11.976H96.6686L96.9566 15.6C96.4606 16.416 95.7006 17.072 94.6766 17.568C93.6686 18.064 92.4206 18.312 90.9326 18.312Z" fill="url(#paint0_linear)"/>
<path d="M111.732 7.008V6.792C111.732 6.104 111.54 5.56 111.156 5.16C110.772 4.76 110.236 4.552 109.548 4.536H106.764V16.512C106.78 16.864 106.916 17.16 107.172 17.4C107.428 17.64 107.732 17.76 108.084 17.76H108.348V18H101.724V17.76H101.964C102.332 17.76 102.644 17.64 102.9 17.4C103.156 17.16 103.284 16.856 103.284 16.488V4.536H100.524C99.8199 4.552 99.2759 4.76 98.8919 5.16C98.5079 5.56 98.3159 6.104 98.3159 6.792V7.008H98.0759V3.216C98.2999 3.296 98.6679 3.376 99.1799 3.456C99.7079 3.536 100.18 3.576 100.596 3.576H109.452C110.156 3.576 110.732 3.528 111.18 3.432C111.644 3.32 111.908 3.248 111.972 3.216V7.008H111.732ZM113.23 17.76H113.518C113.902 17.76 114.23 17.64 114.502 17.4C114.774 17.144 114.91 16.84 114.91 16.488V5.112C114.91 4.76 114.774 4.464 114.502 4.224C114.23 3.968 113.902 3.84 113.518 3.84H113.23V3.6H120.046V3.84H119.758C119.39 3.84 119.07 3.96 118.798 4.2C118.526 4.44 118.382 4.736 118.366 5.088V16.488C118.382 16.856 118.526 17.16 118.798 17.4C119.07 17.64 119.39 17.76 119.758 17.76H120.046V18H113.23V17.76ZM121.481 10.8C121.481 8.496 122.249 6.672 123.785 5.328C125.337 3.968 127.393 3.288 129.953 3.288C132.529 3.288 134.593 3.968 136.145 5.328C137.697 6.672 138.473 8.496 138.473 10.8C138.473 13.104 137.697 14.936 136.145 16.296C134.593 17.64 132.537 18.312 129.977 18.312C127.417 18.312 125.361 17.64 123.809 16.296C122.257 14.936 121.481 13.104 121.481 10.8ZM125.153 10.8C125.153 12.816 125.585 14.416 126.449 15.6C127.329 16.768 128.497 17.352 129.953 17.352C131.425 17.352 132.593 16.768 133.457 15.6C134.337 14.416 134.777 12.816 134.777 10.8C134.777 8.784 134.337 7.192 133.457 6.024C132.593 4.84 131.425 4.248 129.953 4.248C128.497 4.248 127.329 4.84 126.449 6.024C125.585 7.192 125.153 8.784 125.153 10.8ZM150.535 3.6H157.279V3.84H156.871C156.503 3.84 156.191 3.952 155.935 4.176C155.695 4.4 155.567 4.688 155.551 5.04V15.528C155.551 16.52 155.615 17.336 155.743 17.976L155.791 18.312H155.575L144.559 8.592V16.536C144.575 16.888 144.703 17.184 144.943 17.424C145.199 17.648 145.511 17.76 145.879 17.76H146.287V18H139.567V17.76H139.951C140.319 17.76 140.631 17.648 140.887 17.424C141.143 17.184 141.271 16.888 141.271 16.536V5.976C141.271 5.016 141.207 4.224 141.079 3.6L141.031 3.264L141.247 3.288L152.239 12.96V5.064C152.239 4.712 152.111 4.424 151.855 4.2C151.615 3.96 151.311 3.84 150.943 3.84H150.535V3.6ZM169.886 18H158.582V17.76H158.87C159.238 17.76 159.542 17.64 159.782 17.4C160.038 17.16 160.174 16.864 160.19 16.512V5.088C160.174 4.736 160.038 4.44 159.782 4.2C159.542 3.96 159.238 3.84 158.87 3.84H158.582V3.6H167.03C167.462 3.6 167.934 3.56 168.446 3.48C168.958 3.4 169.318 3.32 169.526 3.24V7.056H169.286V6.84C169.286 6.136 169.094 5.584 168.71 5.184C168.326 4.784 167.79 4.576 167.102 4.56H163.646V10.392H166.382C166.926 10.376 167.366 10.192 167.702 9.84C168.038 9.488 168.206 9.04 168.206 8.496V8.328H168.446V13.416H168.206V13.248C168.206 12.496 167.926 11.952 167.366 11.616C167.078 11.44 166.758 11.352 166.406 11.352H163.646V17.04H166.526C167.518 17.024 168.358 16.72 169.046 16.128C169.75 15.52 170.262 14.672 170.582 13.584H170.798L169.886 18ZM177.987 4.584H177.219V16.488C177.219 16.872 177.347 17.184 177.603 17.424C177.875 17.648 178.179 17.76 178.515 17.76H178.779V18H172.179V17.76H172.467C172.819 17.76 173.115 17.64 173.355 17.4C173.611 17.16 173.739 16.864 173.739 16.512V5.088C173.739 4.736 173.611 4.44 173.355 4.2C173.115 3.96 172.827 3.84 172.491 3.84H172.179V3.6H179.547C180.987 3.6 182.195 3.88 183.171 4.44C184.259 5.064 184.803 6.096 184.803 7.536C184.803 8.464 184.523 9.304 183.963 10.056C183.403 10.792 182.571 11.24 181.467 11.4C181.899 11.544 182.323 11.816 182.739 12.216C183.171 12.616 183.515 13.024 183.771 13.44C184.283 14.352 184.819 15.192 185.379 15.96C185.939 16.712 186.387 17.2 186.723 17.424C187.075 17.648 187.499 17.76 187.995 17.76V18H185.979C184.651 18 183.627 17.84 182.907 17.52C182.203 17.2 181.571 16.592 181.011 15.696C180.147 14.32 179.611 13.232 179.403 12.432C179.211 11.952 178.979 11.592 178.707 11.352C178.451 11.112 178.203 10.976 177.963 10.944V10.752H178.563C179.923 10.736 180.755 9.936 181.059 8.352C181.123 8.112 181.155 7.904 181.155 7.728C181.155 7.552 181.147 7.312 181.131 7.008C181.115 6.688 181.011 6.336 180.819 5.952C180.643 5.552 180.411 5.264 180.123 5.088C179.627 4.784 179.115 4.624 178.587 4.608C178.411 4.592 178.211 4.584 177.987 4.584ZM188.19 16.032C188.19 14.992 188.422 14.104 188.886 13.368H189.078C189.062 13.48 189.054 13.584 189.054 13.68C189.054 14.656 189.398 15.512 190.086 16.248C190.79 16.984 191.766 17.352 193.014 17.352C193.91 17.352 194.598 17.144 195.078 16.728C195.574 16.312 195.822 15.848 195.822 15.336C195.822 14.824 195.678 14.416 195.39 14.112C195.118 13.792 194.662 13.424 194.022 13.008L190.614 10.848C189.174 9.952 188.454 8.8 188.454 7.392C188.454 7.248 188.462 7.096 188.478 6.936C188.574 5.8 189.014 4.912 189.798 4.272C190.582 3.616 191.502 3.288 192.558 3.288C193.63 3.288 194.758 3.36 195.942 3.504H197.238L196.902 6.672H196.686C196.686 5.92 196.422 5.328 195.894 4.896C195.382 4.464 194.694 4.248 193.83 4.248C192.982 4.248 192.31 4.432 191.814 4.8C191.318 5.152 191.07 5.624 191.07 6.216C191.07 6.696 191.31 7.112 191.79 7.464C191.982 7.608 192.262 7.792 192.63 8.016L196.446 10.368C197.758 11.168 198.414 12.272 198.414 13.68C198.414 15.168 197.886 16.312 196.83 17.112C195.79 17.912 194.438 18.312 192.774 18.312C191.75 18.312 190.846 18.192 190.062 17.952C189.278 17.712 188.702 17.408 188.334 17.04C188.238 16.752 188.19 16.416 188.19 16.032Z" fill="url(#paint1_linear)"/>
<defs>
<linearGradient id="paint0_linear" x1="117" y1="-19" x2="117" y2="41" gradientUnits="userSpaceOnUse">
<stop stop-color="#A154F2"/>
<stop offset="1" stop-color="#010002" stop-opacity="0.85"/>
</linearGradient>
<linearGradient id="paint1_linear" x1="117" y1="-19" x2="117" y2="41" gradientUnits="userSpaceOnUse">
<stop offset="0.307292" stop-color="#F27A54"/>
<stop offset="0.9999" stop-color="#0C0300" stop-opacity="0.8"/>
<stop offset="1" stop-color="#F27A54" stop-opacity="0"/>
</linearGradient>
</defs>
</svg>
